<?xml version="1.0" ?><svg id="icons" viewBox="0 0 64 64" xmlns="http://www.w3.org/2000/svg"><defs><style>.cls-1{fill:#231f20;}</style></defs><title/><path class="cls-1" d="M57.82,21.08C57,18.08,51.47,2,32,2S7,18.08,6.18,21.08A5,5,0,0,0,2,26V39a5,5,0,0,0,5,5h6.54a21,21,0,0,0,36.92,0h2.77C51.36,48.57,45.85,58,32,58a2,2,0,0,0,0,4c17.81,0,23.93-13.46,25.5-18A5,5,0,0,0,62,39V26A5,5,0,0,0,57.82,21.08ZM11.88,40H7a1,1,0,0,1-1-1V26a1,1,0,0,1,1-1h4.88A21.18,21.18,0,0,0,11,31v3A21.18,21.18,0,0,0,11.88,40ZM49,34a17,17,0,0,1-34,0V31a17,17,0,0,1,34,0Zm1.5-12.93a21,21,0,0,0-37-.07H10.39C11.8,17,17,6,32,6S52.24,17,53.62,21H51A2.08,2.08,0,0,0,50.5,21.07ZM58,39a1,1,0,0,1-1,1H52.12A21.18,21.18,0,0,0,53,34V31a21.18,21.18,0,0,0-.88-6H57a1,1,0,0,1,1,1Z"/></svg>