<svg height="512pt" viewBox="0 0 512.01067 512" width="512pt" xmlns="http://www.w3.org/2000/svg"><path d="m348.273438 333.195312 74.132812-107.050781c2.75-3.667969 4.265625-8.214843 4.265625-12.800781 0-11.96875-9.363281-21.332031-21.332031-21.332031h-126.679688l19.925782-168.148438c.066406-.40625.085937-2.09375.085937-2.519531 0-11.96875-9.363281-21.3320312-21.332031-21.3320312-6.679688 0-13.078125 3.1757812-17.410156 9.0234372l-94.3125 141.503906zm0 0" fill="#ffc107"/><path d="m129.414062 204.832031-39.808593 59.710938c-2.753907 3.671875-4.265625 8.214843-4.265625 12.800781 0 11.96875 9.363281 21.332031 21.332031 21.332031h105.472656l-20.074219 189.804688c-.042968.382812-.066406 1.8125-.066406 2.195312 0 11.96875 9.367188 21.335938 21.335938 21.335938 6.675781 0 13.074218-3.179688 17.300781-8.875l80.617187-116.460938zm0 0" fill="#ffc107"/><path d="m490.671875 512.011719c-5.460937 0-10.921875-2.089844-15.082031-6.25l-469.332032-469.335938c-8.34375-8.339843-8.34375-21.824219 0-30.164062 8.339844-8.339844 21.820313-8.339844 30.164063 0l469.332031 469.332031c8.34375 8.34375 8.34375 21.824219 0 30.167969-4.160156 4.160156-9.621094 6.25-15.082031 6.25zm0 0" fill="#607d8b"/></svg>