<svg height="512pt" viewBox="-85 0 512 512" width="512pt" xmlns="http://www.w3.org/2000/svg"><path d="m320 192h-126.675781l19.921875-168.148438c.066406-.40625.085937-2.089843.085937-2.519531 0-11.964843-9.363281-21.332031-21.332031-21.332031-6.675781 0-13.078125 3.179688-17.40625 9.023438l-170.328125 255.511718c-2.75 3.667969-4.265625 8.210938-4.265625 12.796875 0 11.96875 9.367188 21.335938 21.332031 21.335938h105.472657l-20.074219 189.800781c-.042969.382812-.0625 1.8125-.0625 2.199219 0 11.964843 9.363281 21.332031 21.332031 21.332031 6.675781 0 13.078125-3.179688 17.300781-8.875l191.765625-276.992188c2.753906-3.667968 4.265625-8.210937 4.265625-12.800781 0-11.964843-9.363281-21.332031-21.332031-21.332031zm0 0" fill="#ffc107"/></svg>